<svg width="1280" height="760" viewBox="0 0 1280 760" fill="none" xmlns="http://www.w3.org/2000/svg">
  <rect width="1280" height="760" rx="34" fill="#090D18"/>
  <rect x="28" y="28" width="1224" height="704" rx="26" fill="#0F172A" stroke="#26324A"/>
  <rect x="56" y="70" width="260" height="620" rx="22" fill="#080D18"/>
  <rect x="348" y="70" width="848" height="620" rx="22" fill="#111827"/>
  <text x="78" y="122" fill="#F8FAFC" font-family="Segoe UI, Arial" font-size="30" font-weight="700">Co-pilot Facultate</text>
  <rect x="78" y="158" width="210" height="44" rx="14" fill="#2563EB"/>
  <text x="106" y="187" fill="#FFFFFF" font-family="Segoe UI, Arial" font-size="18" font-weight="700">+ New Chat</text>
  <rect x="78" y="238" width="190" height="18" rx="9" fill="#334155"/>
  <rect x="78" y="276" width="160" height="18" rx="9" fill="#1E293B"/>
  <rect x="78" y="314" width="200" height="18" rx="9" fill="#1E293B"/>
  <text x="390" y="128" fill="#F8FAFC" font-family="Segoe UI, Arial" font-size="34" font-weight="800">Ask anything about your courses</text>
  <rect x="392" y="184" width="520" height="80" rx="22" fill="#1E293B"/>
  <text x="424" y="232" fill="#CBD5E1" font-family="Segoe UI, Arial" font-size="22">Explain glycolysis like I'm preparing for an exam.</text>
  <rect x="560" y="306" width="560" height="132" rx="22" fill="#172033" stroke="#334155"/>
  <text x="592" y="350" fill="#F8FAFC" font-family="Segoe UI, Arial" font-size="22" font-weight="700">AI response with citations</text>
  <rect x="592" y="380" width="440" height="16" rx="8" fill="#64748B"/>
  <rect x="592" y="410" width="360" height="16" rx="8" fill="#475569"/>
  <rect x="392" y="592" width="760" height="64" rx="24" fill="#0B1220" stroke="#334155"/>
  <text x="424" y="632" fill="#64748B" font-family="Segoe UI, Arial" font-size="20">Message Co-pilot Facultate...</text>
</svg>
